<svg width="86" height="66" viewBox="0 0 86 66" fill="none" xmlns="http://www.w3.org/2000/svg">
<g filter="url(#filter0_d)">
<rect x="8" y="7" width="70" height="50" rx="11" fill="#A7C5EB"/>
</g>
<g clip-path="url(#clip0)">
<path d="M53.423 26.8439C54.4065 25.5252 54.9978 24.1561 55.0007 23.178C55.0123 22.9156 54.9478 22.6555 54.815 22.4289C54.7568 22.331 54.6754 22.2489 54.5782 22.1896C54.3499 22.0517 54.0856 21.9852 53.8193 21.9987C52.8436 21.9987 51.4741 22.5896 50.155 23.5759C48.862 24.6379 47.6554 25.8008 46.5465 27.0537C46.296 27.3176 46.0318 27.595 45.754 27.886L42.8953 27.0291L42.9035 27.0209C43.0218 26.9006 43.0879 26.7385 43.0875 26.5697C43.0871 26.401 43.0203 26.2392 42.9015 26.1194L42.3856 25.6027C42.265 25.4819 42.1014 25.4139 41.9307 25.4138C41.8469 25.4136 41.7639 25.4301 41.6865 25.4623C41.6091 25.4945 41.5389 25.5418 41.48 25.6014L40.7075 26.3743L40.2977 26.2513C40.3936 26.1284 40.4412 25.9746 40.4318 25.819C40.4224 25.6634 40.3565 25.5165 40.2465 25.406L39.7277 24.8876C39.6071 24.7674 39.4436 24.7001 39.2733 24.7003C39.1894 24.7 39.1064 24.7164 39.029 24.7486C38.9516 24.7808 38.8814 24.8282 38.8225 24.888L38.1136 25.5969L35.2066 24.7262C35.1392 24.7063 35.0692 24.6964 34.9989 24.6966C34.7983 24.6963 34.6055 24.7744 34.4617 24.9142L33.4397 25.9362C33.3262 26.0474 33.2615 26.1991 33.2598 26.3579C33.2584 26.4658 33.2868 26.572 33.3418 26.6648C33.3968 26.7576 33.4763 26.8335 33.5716 26.8841L39.6847 30.2992C39.7374 30.3323 39.787 30.37 39.8331 30.4119L41.5759 32.1542C39.9458 33.8716 38.4935 35.5349 37.3617 36.9818C37.256 37.1162 37.1568 37.2478 37.0576 37.3773L32.3283 36.9479C32.3012 36.9445 32.2738 36.9428 32.2464 36.9429C32.0277 36.9473 31.8187 37.0338 31.6608 37.1851L31.1842 37.6609C31.1273 37.7155 31.0818 37.7809 31.0504 37.8533C31.019 37.9257 31.0024 38.0036 31.0015 38.0825C31.001 38.1951 31.0333 38.3053 31.0943 38.3999C31.1554 38.4945 31.2425 38.5693 31.3453 38.6152L34.6723 40.1958C34.7178 40.2217 34.7605 40.2523 34.7997 40.2871L35.0759 40.5609C34.9972 40.7655 34.9522 40.9815 34.9427 41.2005C34.9382 41.3133 34.9565 41.4259 34.9964 41.5315C35.0363 41.6371 35.0971 41.7336 35.1751 41.8152L35.187 41.8259L35.1903 41.8279C35.2718 41.905 35.3679 41.965 35.473 42.0044C35.5781 42.0438 35.6899 42.0618 35.802 42.0574C36.0192 42.0476 36.2334 42.003 36.4364 41.9254L36.7167 42.2049C36.7494 42.2431 36.7785 42.2842 36.8036 42.3278L38.3804 45.6471C38.4262 45.7498 38.5004 45.8373 38.5944 45.8991C38.6884 45.9609 38.7982 45.9945 38.9106 45.9958H38.9139C38.9922 45.9955 39.0697 45.9797 39.1419 45.9494C39.214 45.919 39.2794 45.8746 39.3343 45.8188L39.8228 45.327C39.9704 45.168 40.0535 44.9597 40.056 44.7427C40.056 44.7156 40.056 44.6947 40.0539 44.6837L39.6232 39.938C39.7531 39.8405 39.8839 39.7397 40.0187 39.6352C41.4677 38.5017 43.133 37.0482 44.8455 35.4202L46.5895 37.1658C46.6323 37.2118 46.6705 37.2619 46.7034 37.3154L50.112 43.4174C50.1555 43.5005 50.2181 43.5721 50.2945 43.6264C50.371 43.6807 50.4593 43.7161 50.5521 43.7298C50.6448 43.7435 50.7395 43.735 50.8284 43.7051C50.9173 43.6751 50.9979 43.6246 51.0635 43.5576L52.0929 42.5291C52.2292 42.3837 52.3046 42.1915 52.3035 41.9922C52.3036 41.9242 52.294 41.8564 52.2752 41.791L51.4044 38.8837L52.1129 38.1735C52.2324 38.0535 52.2994 37.891 52.2994 37.7217C52.2994 37.5524 52.2324 37.3899 52.1129 37.2699L51.5933 36.7507C51.4832 36.6403 51.3365 36.574 51.1809 36.5642C51.0252 36.5545 50.8714 36.602 50.7484 36.6979L50.6254 36.2901L51.3987 35.5173C51.518 35.3965 51.585 35.2335 51.5851 35.0637C51.5855 34.9799 51.5692 34.8969 51.5372 34.8195C51.5052 34.7422 51.4581 34.6719 51.3987 34.6129L50.8815 34.0958C50.822 34.0359 50.7513 33.9884 50.6733 33.9559C50.5954 33.9235 50.5117 33.9068 50.4273 33.9068C50.3429 33.9068 50.2593 33.9235 50.1813 33.9559C50.1034 33.9884 50.0326 34.0359 49.9731 34.0958L49.9677 34.1007L49.1117 31.2421C49.4073 30.9601 49.6889 30.6924 49.9567 30.4389C51.5077 28.9694 52.6276 27.9069 53.423 26.8439Z" fill="black"/>
</g>
<defs>
<filter id="filter0_d" x="0" y="0" width="86" height="66" filterUnits="userSpaceOnUse" color-interpolation-filters="sRGB">
<feFlood flood-opacity="0" result="BackgroundImageFix"/>
<feColorMatrix in="SourceAlpha" type="matrix" values="0 0 0 0 0 0 0 0 0 0 0 0 0 0 0 0 0 0 127 0"/>
<feMorphology radius="4" operator="dilate" in="SourceAlpha" result="effect1_dropShadow"/>
<feOffset dy="1"/>
<feGaussianBlur stdDeviation="2"/>
<feColorMatrix type="matrix" values="0 0 0 0 0 0 0 0 0 0 0 0 0 0 0 0 0 0 0.03 0"/>
<feBlend mode="normal" in2="BackgroundImageFix" result="effect1_dropShadow"/>
<feBlend mode="normal" in="SourceGraphic" in2="effect1_dropShadow" result="shape"/>
</filter>
<clipPath id="clip0">
<rect width="24" height="24" fill="white" transform="translate(31 22)"/>
</clipPath>
</defs>
</svg>
