<svg width="86" height="66" viewBox="0 0 86 66" fill="none" xmlns="http://www.w3.org/2000/svg">
<g filter="url(#filter0_d)">
<rect x="8" y="7" width="70" height="50" rx="11" fill="#A7C5EB"/>
</g>
<path d="M50.1 34.5934C49.9911 34.4688 49.8988 34.3328 49.8226 34.1892C49.7852 38.0486 46.6344 41.1771 42.7663 41.1771C38.8749 41.1771 35.709 38.0112 35.709 34.1198C35.709 30.2285 38.8749 27.0625 42.7663 27.0625C46.1138 27.0625 48.9244 29.4056 49.6446 32.5377L50.2837 27.7867L50.2981 27.6799C48.4783 25.5546 45.7771 24.2052 42.7663 24.2052C40.4173 24.2052 38.2569 25.0269 36.5563 26.3972V26.4997V26.5906V28.6029V28.6828C36.5563 30.0269 35.8597 31.2541 34.7574 31.9553V39.8212V39.9567C36.5623 42.4265 39.4798 44.0343 42.7663 44.0343C46.2197 44.0343 49.2659 42.259 51.0416 39.5736V39.4283V35.2151C50.6814 35.0979 50.3549 34.8849 50.1 34.5934Z" fill="black"/>
<path d="M42.7663 28.2619C39.5362 28.2619 36.9083 30.8897 36.9083 34.1199C36.9083 37.35 39.5361 39.9778 42.7663 39.9778C45.9964 39.9778 48.6242 37.35 48.6242 34.1199C48.6242 30.8897 45.9963 28.2619 42.7663 28.2619Z" fill="black"/>
<path d="M53.9733 23.1574C53.9733 22.647 53.5595 22.2332 53.0491 22.2332C52.5863 22.2332 52.1948 22.5755 52.1332 23.0342L50.7828 33.0725C50.7472 33.3367 50.8275 33.6034 51.003 33.8041C51.1785 34.0048 51.432 34.1198 51.6986 34.1198H52.2409V44.8872C52.2409 45.3729 52.6347 45.7667 53.1204 45.7667C53.6061 45.7667 53.9999 45.3729 53.9999 44.8872L53.9733 23.1574Z" fill="black"/>
<path d="M35.357 23.3526C35.357 23.0213 35.0886 22.7529 34.7574 22.7529C34.4261 22.7529 34.1577 23.0213 34.1577 23.3526V26.6707H33.2782V23.3526C33.2782 23.0213 33.0098 22.7529 32.6785 22.7529C32.3473 22.7529 32.0788 23.0213 32.0788 23.3526V26.6707H31.1993V23.3526C31.1993 23.0213 30.9309 22.7529 30.5997 22.7529C30.2684 22.7529 30 23.0213 30 23.3526V28.7628C30 29.9317 30.7529 30.9275 31.799 31.2923V44.8872C31.799 45.3729 32.1928 45.7667 32.6785 45.7667C33.1642 45.7667 33.558 45.3729 33.558 44.8872V31.2923C34.6041 30.9275 35.357 29.9317 35.357 28.7628V23.3526Z" fill="black"/>
<defs>
<filter id="filter0_d" x="0" y="0" width="86" height="66" filterUnits="userSpaceOnUse" color-interpolation-filters="sRGB">
<feFlood flood-opacity="0" result="BackgroundImageFix"/>
<feColorMatrix in="SourceAlpha" type="matrix" values="0 0 0 0 0 0 0 0 0 0 0 0 0 0 0 0 0 0 127 0"/>
<feMorphology radius="4" operator="dilate" in="SourceAlpha" result="effect1_dropShadow"/>
<feOffset dy="1"/>
<feGaussianBlur stdDeviation="2"/>
<feColorMatrix type="matrix" values="0 0 0 0 0 0 0 0 0 0 0 0 0 0 0 0 0 0 0.03 0"/>
<feBlend mode="normal" in2="BackgroundImageFix" result="effect1_dropShadow"/>
<feBlend mode="normal" in="SourceGraphic" in2="effect1_dropShadow" result="shape"/>
</filter>
</defs>
</svg>
