<svg width="45" height="40" viewBox="0 0 45 40" fill="none" xmlns="http://www.w3.org/2000/svg">
<path d="M22.8846 0.00341155C10.4604 -0.208853 0.215678 9.69115 0.00341377 22.1154C-0.117152 29.16 3.02266 35.4914 8.0219 39.7019C8.34879 39.4166 8.69945 39.1551 9.08917 38.9428L15.8027 35.2809C16.6831 34.8003 17.2316 33.8774 17.2316 32.8738V30.1228C17.2316 30.1228 15.261 27.7659 14.5095 24.4911C13.8863 24.0878 13.4686 23.3907 13.4686 22.5968V19.5861C13.4686 18.9238 13.7632 18.332 14.2209 17.9177V13.5654C14.2209 13.5654 13.3268 6.79247 22.4992 6.79247C31.6715 6.79247 30.7775 13.5654 30.7775 13.5654V17.9177C31.236 18.332 31.5297 18.9238 31.5297 19.5861V22.5968C31.5297 23.6089 30.8505 24.4605 29.9284 24.7449C29.4147 26.342 28.6735 27.8644 27.6937 29.2483C27.4466 29.5973 27.2157 29.8928 27.0136 30.1228V32.9434C27.0136 33.9818 27.6003 34.9319 28.5292 35.3955L35.7181 38.9895C36.1495 39.2052 36.5392 39.4778 36.8983 39.7809C41.7464 35.7377 44.8786 29.6924 44.9949 22.8846C45.2089 10.4604 35.3097 0.215676 22.8846 0.00341155Z" fill="#A7C5EB"/>
</svg>
